# xmcd CD database file
# Copyright (C) 1993-1998 Ti Kan
#
# Track frame offsets:
#  150
#  25765
#  51730
#  79500
#  92055
#  108630
#  129715
#  140025
#  171450
#  191025
#  209460
#  231225
#
# Disc length: 3252 seconds
#
# Revision: 1
# Processed by: cddbd v1.4b41PL1 Copyright (c) Steve Scherf et al.
# Submitted via: CDWizzard Release:4.35
#
DISCID=b60cb20c
DTITLE=Deby Benton Grosjean - Beyond the Shore
DYEAR=1900
DGENRE=
TTITLE0=The Mermaid
TTITLE1=The Ships Are Sailing/Da Full Rigged Ship
TTITLE2=The Female Sailor/Crabs in the Skillet/The Gray Foam on Stormy Se
TTITLE2=as
TTITLE3=The Sandpiper
TTITLE4=My Love Has Gone to Sea
TTITLE5=The Flowing Tide/ The Gypsies/The Roaring Hornpipe
TTITLE6=The Bonnie Ship the Diamond
TTITLE7=Gray Whales in the Monterey Bay
TTITLE8=Maol Donaidh(The Fisherman's Call to the Seals)
TTITLE9=Rolling Waves/Cook in the Galley
TTITLE10=Crossing to Ireland
TTITLE11=Spootiskerry
EXTD=
EXTT0=
EXTT1=
EXTT2=
EXTT3=
EXTT4=
EXTT5=
EXTT6=
EXTT7=
EXTT8=
EXTT9=
EXTT10=
EXTT11=
PLAYORDER=
